<svg width="800" height="619" viewBox="0 0 800 619" fill="none" xmlns="http://www.w3.org/2000/svg">
<path opacity="0.68" d="M427.195 461.886C426.247 468.422 422.977 474.398 417.983 478.72C412.989 483.041 406.606 485.42 400.002 485.42C393.397 485.42 387.014 483.041 382.02 478.72C377.026 474.398 373.756 468.422 372.808 461.886H303.236V615.717H496.767V461.886H427.195Z" fill="#D6D6E3"/>
<path d="M789.214 465.825H10.789C7.92847 465.822 5.18594 464.684 3.16324 462.662C1.14054 460.639 0.00291202 457.897 0 455.036L0 10.789C0.00291202 7.92847 1.14054 5.18594 3.16324 3.16324C5.18594 1.14054 7.92847 0.00291202 10.789 0H789.214C792.074 0.00370594 794.816 1.14169 796.838 3.1643C798.86 5.18691 799.997 7.92899 800 10.789V455.036C799.997 457.897 798.859 460.639 796.837 462.662C794.814 464.684 792.072 465.822 789.211 465.825H789.214Z" fill="#090814"/>
<path d="M781.835 18.003H20.088V447.822H781.835V18.003Z" fill="white" fill-opacity="0.3"/>
<path d="M93.06 44.12C95.4254 44.12 97.343 42.2025 97.343 39.837C97.343 37.4716 95.4254 35.554 93.06 35.554C90.6945 35.554 88.777 37.4716 88.777 39.837C88.777 42.2025 90.6945 44.12 93.06 44.12Z" fill="#59467B"/>
<path d="M109.319 44.12C111.684 44.12 113.602 42.2025 113.602 39.837C113.602 37.4716 111.684 35.554 109.319 35.554C106.954 35.554 105.036 37.4716 105.036 39.837C105.036 42.2025 106.954 44.12 109.319 44.12Z" fill="#59467B"/>
<path d="M125.577 44.12C127.942 44.12 129.86 42.2025 129.86 39.837C129.86 37.4716 127.942 35.554 125.577 35.554C123.212 35.554 121.294 37.4716 121.294 39.837C121.294 42.2025 123.212 44.12 125.577 44.12Z" fill="#59467B"/>
<path opacity="0.44" d="M212.152 146.292H95.344C93.6026 146.292 91.9325 145.6 90.7011 144.369C89.4697 143.138 88.778 141.467 88.778 139.726C88.778 137.985 89.4697 136.315 90.7011 135.083C91.9325 133.852 93.6026 133.16 95.344 133.16H212.152C213.893 133.16 215.563 133.852 216.795 135.083C218.026 136.315 218.718 137.985 218.718 139.726C218.718 141.467 218.026 143.138 216.795 144.369C215.563 145.6 213.893 146.292 212.152 146.292Z" fill="#CCCCCC"/>
<path opacity="0.44" d="M212.152 121.064H95.344C93.6026 121.064 91.9325 120.372 90.7011 119.141C89.4697 117.91 88.778 116.239 88.778 114.498C88.778 112.757 89.4697 111.087 90.7011 109.855C91.9325 108.624 93.6026 107.932 95.344 107.932H212.152C213.893 107.932 215.563 108.624 216.795 109.855C218.026 111.087 218.718 112.757 218.718 114.498C218.718 116.239 218.026 117.91 216.795 119.141C215.563 120.372 213.893 121.064 212.152 121.064Z" fill="#CCCCCC"/>
<path opacity="0.44" d="M128.52 171.174H95.344C93.6026 171.174 91.9325 170.482 90.7011 169.251C89.4697 168.02 88.778 166.349 88.778 164.608C88.778 162.867 89.4697 161.197 90.7011 159.965C91.9325 158.734 93.6026 158.042 95.344 158.042H128.52C130.261 158.042 131.931 158.734 133.163 159.965C134.394 161.197 135.086 162.867 135.086 164.608C135.086 166.349 134.394 168.02 133.163 169.251C131.931 170.482 130.261 171.174 128.52 171.174Z" fill="#CCCCCC"/>
<path opacity="0.44" d="M212.152 379.292H95.344C93.6026 379.292 91.9325 378.6 90.7011 377.369C89.4697 376.137 88.778 374.467 88.778 372.726C88.778 370.985 89.4697 369.314 90.7011 368.083C91.9325 366.852 93.6026 366.16 95.344 366.16H212.152C213.893 366.16 215.563 366.852 216.795 368.083C218.026 369.314 218.718 370.985 218.718 372.726C218.718 374.467 218.026 376.137 216.795 377.369C215.563 378.6 213.893 379.292 212.152 379.292Z" fill="#CCCCCC"/>
<path opacity="0.44" d="M212.152 354.064H95.344C93.6026 354.064 91.9325 353.372 90.7011 352.141C89.4697 350.91 88.778 349.239 88.778 347.498C88.778 345.757 89.4697 344.086 90.7011 342.855C91.9325 341.624 93.6026 340.932 95.344 340.932H212.152C213.893 340.932 215.563 341.624 216.795 342.855C218.026 344.086 218.718 345.757 218.718 347.498C218.718 349.239 218.026 350.91 216.795 352.141C215.563 353.372 213.893 354.064 212.152 354.064Z" fill="#CCCCCC"/>
<path opacity="0.44" d="M128.52 404.174H95.344C93.6026 404.174 91.9325 403.482 90.7011 402.251C89.4697 401.019 88.778 399.349 88.778 397.608C88.778 395.867 89.4697 394.197 90.7011 392.965C91.9325 391.734 93.6026 391.042 95.344 391.042H128.52C130.261 391.042 131.931 391.734 133.163 392.965C134.394 394.197 135.086 395.867 135.086 397.608C135.086 399.349 134.394 401.019 133.163 402.251C131.931 403.482 130.261 404.174 128.52 404.174Z" fill="#CCCCCC"/>
<path d="M209.283 293.004C207.537 293.008 205.86 292.322 204.618 291.095L173.691 260.554C173.084 259.954 172.602 259.24 172.273 258.453C171.944 257.666 171.774 256.821 171.774 255.967C171.774 255.114 171.944 254.269 172.273 253.482C172.602 252.695 173.084 251.981 173.691 251.381L204.491 220.963C205.774 219.702 207.503 218.998 209.302 219.003C211.101 219.009 212.826 219.724 214.101 220.993C215.377 222.272 216.094 224.006 216.094 225.813C216.094 227.62 215.377 229.354 214.101 230.633L191.215 253.524C190.502 254.239 190.101 255.207 190.101 256.217C190.101 257.227 190.502 258.195 191.215 258.91L213.979 281.675C214.909 282.603 215.542 283.786 215.798 285.075C216.055 286.363 215.923 287.699 215.42 288.912C214.916 290.126 214.064 291.162 212.971 291.891C211.878 292.619 210.593 293.007 209.279 293.004H209.283Z" fill="#59467B"/>
<path opacity="0.44" d="M357.298 146.292H240.49C238.749 146.292 237.078 145.6 235.847 144.369C234.616 143.138 233.924 141.467 233.924 139.726C233.924 137.985 234.616 136.315 235.847 135.083C237.078 133.852 238.749 133.16 240.49 133.16H357.298C359.039 133.16 360.709 133.852 361.941 135.083C363.172 136.315 363.864 137.985 363.864 139.726C363.864 141.467 363.172 143.138 361.941 144.369C360.709 145.6 359.039 146.292 357.298 146.292Z" fill="#CCCCCC"/>
<path opacity="0.44" d="M357.298 171.174H154.098C152.357 171.174 150.687 170.482 149.455 169.251C148.224 168.02 147.532 166.349 147.532 164.608C147.532 162.867 148.224 161.197 149.455 159.965C150.687 158.734 152.357 158.042 154.098 158.042H357.298C359.039 158.042 360.709 158.734 361.941 159.965C363.172 161.197 363.864 162.867 363.864 164.608C363.864 166.349 363.172 168.02 361.941 169.251C360.709 170.482 359.039 171.174 357.298 171.174Z" fill="#CCCCCC"/>
<path opacity="0.44" d="M276.431 121.41H243.252C241.511 121.41 239.84 120.718 238.609 119.487C237.378 118.255 236.686 116.585 236.686 114.844C236.686 113.103 237.378 111.433 238.609 110.201C239.84 108.97 241.511 108.278 243.252 108.278H276.428C278.169 108.278 279.839 108.97 281.071 110.201C282.302 111.433 282.994 113.103 282.994 114.844C282.994 116.585 282.302 118.255 281.071 119.487C279.839 120.718 278.169 121.41 276.428 121.41H276.431Z" fill="#CCCCCC"/>
<path opacity="0.44" d="M357.298 379.292H240.49C238.749 379.292 237.078 378.6 235.847 377.369C234.616 376.137 233.924 374.467 233.924 372.726C233.924 370.985 234.616 369.314 235.847 368.083C237.078 366.852 238.749 366.16 240.49 366.16H357.298C359.039 366.16 360.709 366.852 361.941 368.083C363.172 369.314 363.864 370.985 363.864 372.726C363.864 374.467 363.172 376.137 361.941 377.369C360.709 378.6 359.039 379.292 357.298 379.292Z" fill="#CCCCCC"/>
<path opacity="0.44" d="M357.298 404.174H154.098C152.357 404.174 150.687 403.482 149.455 402.251C148.224 401.019 147.532 399.349 147.532 397.608C147.532 395.867 148.224 394.197 149.455 392.965C150.687 391.734 152.357 391.042 154.098 391.042H357.298C359.039 391.042 360.709 391.734 361.941 392.965C363.172 394.197 363.864 395.867 363.864 397.608C363.864 399.349 363.172 401.019 361.941 402.251C360.709 403.482 359.039 404.174 357.298 404.174Z" fill="#CCCCCC"/>
<path opacity="0.44" d="M276.431 354.41H243.252C241.511 354.41 239.84 353.718 238.609 352.487C237.378 351.256 236.686 349.585 236.686 347.844C236.686 346.103 237.378 344.433 238.609 343.201C239.84 341.97 241.511 341.278 243.252 341.278H276.428C278.169 341.278 279.839 341.97 281.071 343.201C282.302 344.433 282.994 346.103 282.994 347.844C282.994 349.585 282.302 351.256 281.071 352.487C279.839 353.718 278.169 354.41 276.428 354.41H276.431Z" fill="#CCCCCC"/>
<path d="M258.565 293.004C257.251 293.007 255.966 292.619 254.873 291.891C253.78 291.162 252.928 290.126 252.424 288.912C251.921 287.699 251.789 286.363 252.046 285.075C252.302 283.786 252.935 282.603 253.865 281.675L276.629 258.91C277.342 258.195 277.743 257.227 277.743 256.217C277.743 255.207 277.342 254.239 276.629 253.524L253.743 230.634C252.465 229.356 251.747 227.622 251.747 225.814C251.747 224.006 252.465 222.272 253.743 220.994C255.018 219.725 256.743 219.01 258.542 219.004C260.341 218.999 262.07 219.703 263.353 220.964L294.153 251.382C294.76 251.982 295.242 252.696 295.571 253.483C295.9 254.27 296.07 255.115 296.07 255.968C296.07 256.822 295.9 257.667 295.571 258.454C295.242 259.241 294.76 259.955 294.153 260.555L263.226 291.096C261.984 292.321 260.309 293.007 258.565 293.004Z" fill="#59467B"/>
<path d="M707.987 202.74H554.487C551.748 202.74 549.527 199.8 549.527 196.174C549.527 192.548 551.748 189.608 554.487 189.608H707.987C710.726 189.608 712.947 192.548 712.947 196.174C712.947 199.8 710.727 202.74 707.987 202.74Z" fill="#59467B"/>
<g opacity="0.7">
<path d="M503 228.175C520.673 228.175 535 213.848 535 196.175C535 178.502 520.673 164.175 503 164.175C485.327 164.175 471 178.502 471 196.175C471 213.848 485.327 228.175 503 228.175Z" fill="#F2F2F2"/>
<path d="M503 166.175C496.079 166.179 489.372 168.576 484.015 172.959C478.659 177.342 474.982 183.442 473.608 190.225C472.234 197.009 473.247 204.058 476.475 210.181C479.704 216.303 484.949 221.12 491.323 223.818C498.654 226.915 506.916 226.973 514.29 223.978C521.664 220.984 527.546 215.183 530.643 207.852C533.74 200.521 533.798 192.259 530.803 184.885C527.809 177.511 522.008 171.629 514.677 168.532C510.983 166.969 507.011 166.167 503 166.175ZM503 164.175C509.329 164.175 515.516 166.052 520.778 169.568C526.041 173.084 530.142 178.082 532.564 183.929C534.986 189.776 535.62 196.211 534.385 202.418C533.15 208.625 530.103 214.327 525.627 218.802C521.152 223.278 515.45 226.325 509.243 227.56C503.035 228.795 496.601 228.161 490.754 225.739C484.907 223.317 479.909 219.216 476.393 213.953C472.877 208.691 471 202.504 471 196.175C471 187.688 474.371 179.549 480.373 173.548C486.374 167.546 494.513 164.175 503 164.175Z" fill="#090814"/>
<path d="M499.443 209.746C498.993 209.746 498.549 209.641 498.146 209.44C497.743 209.239 497.393 208.946 497.123 208.586L490.01 199.102C489.782 198.797 489.615 198.451 489.521 198.082C489.426 197.713 489.405 197.329 489.459 196.952C489.513 196.574 489.641 196.212 489.835 195.884C490.029 195.556 490.286 195.27 490.591 195.042C490.895 194.813 491.242 194.647 491.611 194.552C491.98 194.458 492.364 194.437 492.741 194.491C493.118 194.545 493.481 194.672 493.809 194.866C494.136 195.061 494.423 195.317 494.651 195.622L499.305 201.822L511.258 183.893C511.469 183.576 511.741 183.304 512.057 183.092C512.374 182.88 512.729 182.733 513.103 182.658C513.476 182.583 513.861 182.583 514.234 182.657C514.608 182.731 514.963 182.878 515.28 183.089C515.597 183.3 515.869 183.572 516.081 183.888C516.293 184.205 516.44 184.56 516.515 184.934C516.59 185.307 516.59 185.691 516.516 186.065C516.442 186.439 516.295 186.794 516.084 187.111L501.858 208.451C501.601 208.837 501.255 209.156 500.849 209.381C500.443 209.605 499.989 209.729 499.525 209.742L499.443 209.746Z" fill="#59467B"/>
</g>
<path opacity="0.7" d="M503 316.175C520.673 316.175 535 301.848 535 284.175C535 266.502 520.673 252.175 503 252.175C485.327 252.175 471 266.502 471 284.175C471 301.848 485.327 316.175 503 316.175Z" fill="#F2F2F2"/>
<path d="M503 254.175C496.079 254.179 489.372 256.576 484.015 260.959C478.659 265.342 474.982 271.442 473.608 278.225C472.234 285.009 473.247 292.058 476.475 298.181C479.704 304.303 484.949 309.12 491.323 311.818C498.654 314.915 506.916 314.973 514.29 311.978C521.664 308.984 527.546 303.183 530.643 295.852C533.74 288.521 533.798 280.259 530.803 272.885C527.809 265.511 522.008 259.629 514.677 256.532C510.983 254.969 507.011 254.167 503 254.175ZM503 252.175C509.329 252.175 515.516 254.052 520.778 257.568C526.041 261.084 530.142 266.082 532.564 271.929C534.986 277.776 535.62 284.211 534.385 290.418C533.15 296.625 530.103 302.327 525.627 306.802C521.152 311.278 515.45 314.325 509.243 315.56C503.035 316.795 496.601 316.161 490.754 313.739C484.907 311.317 479.909 307.216 476.393 301.953C472.877 296.691 471 290.504 471 284.175C471 275.688 474.371 267.549 480.373 261.548C486.374 255.546 494.513 252.175 503 252.175Z" fill="#090814"/>
<path d="M511.856 274.561C510.881 273.107 509.564 271.915 508.019 271.091C506.474 270.266 504.751 269.835 503 269.835C501.249 269.835 499.526 270.266 497.981 271.091C496.436 271.915 495.119 273.107 494.144 274.561C494.861 276.322 496.086 277.829 497.663 278.891C499.241 279.952 501.099 280.519 503 280.519C504.901 280.519 506.759 279.952 508.337 278.891C509.914 277.829 511.139 276.322 511.856 274.561Z" fill="#59467B"/>
<path d="M492.993 276.251C492.838 276.184 492.69 276.1 492.553 276.001C492.346 275.831 492.181 275.617 492.069 275.374C492.212 275.081 492.272 274.754 492.242 274.428C492.213 274.103 492.096 273.793 491.902 273.529C491.709 273.266 491.448 273.061 491.147 272.935C490.846 272.809 490.516 272.768 490.193 272.816C489.87 272.864 489.567 272.999 489.315 273.207C489.063 273.415 488.873 273.688 488.765 273.996C488.657 274.304 488.635 274.635 488.701 274.955C488.768 275.274 488.92 275.57 489.142 275.809C489.267 275.942 489.41 276.057 489.567 276.151C489.77 276.269 489.936 276.442 490.044 276.651C490.248 277.064 490.53 277.433 490.873 277.74C491.225 278.042 491.606 278.31 492.009 278.54C491.454 280.112 491.139 281.759 491.075 283.425C490.43 283.436 489.79 283.54 489.175 283.732C488.859 283.83 488.561 283.979 488.293 284.172C488.221 284.163 488.149 284.158 488.076 284.157C487.747 284.156 487.424 284.245 487.142 284.415C486.86 284.584 486.63 284.828 486.477 285.119C486.324 285.41 486.253 285.738 486.273 286.066C486.293 286.395 486.403 286.711 486.59 286.982C486.777 287.252 487.035 287.466 487.336 287.601C487.636 287.735 487.968 287.784 488.294 287.743C488.621 287.702 488.93 287.572 489.188 287.368C489.445 287.164 489.642 286.892 489.757 286.584C489.828 286.386 489.952 286.212 490.116 286.08C490.279 285.947 490.476 285.863 490.684 285.835C490.837 285.817 490.992 285.806 491.146 285.805C491.36 288.155 492.089 290.429 493.281 292.466C492.339 293.127 491.642 294.081 491.296 295.178C491.245 295.206 491.197 295.239 491.154 295.278C491.079 295.337 491.008 295.402 490.944 295.473C490.73 295.708 490.582 295.996 490.516 296.307C490.45 296.619 490.468 296.942 490.568 297.244C490.669 297.545 490.847 297.815 491.086 298.025C491.325 298.236 491.615 298.378 491.927 298.439C492.239 298.5 492.562 298.477 492.862 298.372C493.162 298.267 493.429 298.084 493.636 297.842C493.842 297.6 493.98 297.307 494.036 296.994C494.091 296.681 494.063 296.358 493.953 296.06C493.871 295.843 493.855 295.607 493.907 295.381C493.959 295.156 494.077 294.95 494.245 294.791C494.38 294.662 494.522 294.54 494.67 294.426C495.559 295.584 496.681 296.544 497.963 297.243C499.245 297.943 500.66 298.366 502.115 298.487V282.444C500.186 282.298 498.329 281.65 496.729 280.563C495.128 279.477 493.84 277.99 492.993 276.251ZM517.925 284.173C517.852 284.174 517.78 284.179 517.708 284.188C517.437 283.999 517.14 283.851 516.826 283.748C516.211 283.555 515.571 283.451 514.926 283.441C514.857 281.777 514.542 280.132 513.992 278.559C514.395 278.329 514.776 278.061 515.128 277.759C515.482 277.435 515.774 277.048 515.987 276.618C516.087 276.431 516.241 276.279 516.429 276.181C516.733 276.009 516.981 275.753 517.141 275.442C517.302 275.132 517.368 274.782 517.332 274.434C517.296 274.087 517.159 273.757 516.938 273.487C516.718 273.216 516.423 273.015 516.09 272.91C515.757 272.804 515.4 272.798 515.064 272.893C514.728 272.987 514.426 273.178 514.197 273.441C513.967 273.704 513.82 274.029 513.772 274.375C513.725 274.721 513.779 275.074 513.929 275.389C513.819 275.633 513.654 275.848 513.445 276.016C513.305 276.132 513.158 276.239 513.005 276.338C512.155 278.066 510.866 279.54 509.267 280.613C507.668 281.687 505.815 282.321 503.894 282.454V298.515C505.349 298.392 506.762 297.967 508.044 297.268C509.325 296.569 510.448 295.61 511.339 294.454C511.496 294.579 511.629 294.691 511.739 294.796C511.914 294.959 512.038 295.169 512.094 295.401C512.15 295.634 512.136 295.877 512.054 296.102C511.945 296.4 511.917 296.722 511.973 297.034C512.029 297.347 512.166 297.639 512.372 297.881C512.578 298.123 512.844 298.305 513.144 298.411C513.443 298.516 513.766 298.539 514.077 298.479C514.389 298.419 514.679 298.277 514.918 298.068C515.157 297.859 515.336 297.59 515.437 297.29C515.538 296.989 515.558 296.666 515.493 296.355C515.429 296.044 515.283 295.756 515.071 295.52C515.007 295.449 514.936 295.384 514.861 295.325C514.779 295.26 514.719 295.225 514.719 295.225C514.374 294.123 513.67 293.168 512.719 292.513C513.911 290.476 514.64 288.202 514.854 285.852C515.002 285.854 515.149 285.864 515.296 285.882C515.508 285.91 515.71 285.994 515.879 286.125C516.048 286.257 516.178 286.432 516.257 286.631C516.406 287.011 516.68 287.329 517.034 287.532C517.389 287.735 517.802 287.811 518.205 287.748C518.608 287.685 518.978 287.485 519.253 287.183C519.528 286.881 519.691 286.495 519.716 286.087C519.728 285.842 519.691 285.597 519.607 285.367C519.522 285.136 519.392 284.926 519.224 284.747C519.055 284.568 518.853 284.426 518.628 284.327C518.404 284.229 518.161 284.177 517.916 284.174L517.925 284.173Z" fill="#59467B"/>
<path d="M707.987 290.74H554.487C551.748 290.74 549.527 287.8 549.527 284.174C549.527 280.548 551.748 277.608 554.487 277.608H707.987C710.726 277.608 712.947 280.548 712.947 284.174C712.947 287.8 710.727 290.74 707.987 290.74Z" fill="#59467B"/>
<path opacity="0.7" d="M503 404.175C520.673 404.175 535 389.848 535 372.175C535 354.502 520.673 340.175 503 340.175C485.327 340.175 471 354.502 471 372.175C471 389.848 485.327 404.175 503 404.175Z" fill="#F2F2F2"/>
<path d="M503 342.175C496.079 342.179 489.372 344.576 484.015 348.959C478.659 353.342 474.982 359.442 473.608 366.225C472.234 373.009 473.247 380.058 476.475 386.181C479.704 392.303 484.949 397.12 491.323 399.818C498.654 402.915 506.916 402.973 514.29 399.978C521.664 396.984 527.546 391.183 530.643 383.852C533.74 376.521 533.798 368.259 530.803 360.885C527.809 353.511 522.008 347.629 514.677 344.532C510.983 342.969 507.011 342.167 503 342.175ZM503 340.175C509.329 340.175 515.516 342.052 520.778 345.568C526.041 349.084 530.142 354.082 532.564 359.929C534.986 365.776 535.62 372.21 534.385 378.418C533.15 384.625 530.103 390.327 525.627 394.802C521.152 399.278 515.45 402.325 509.243 403.56C503.035 404.795 496.601 404.161 490.754 401.739C484.907 399.317 479.909 395.216 476.393 389.953C472.877 384.691 471 378.504 471 372.175C471 363.688 474.371 355.549 480.373 349.548C486.374 343.546 494.513 340.175 503 340.175Z" fill="#090814"/>
<path d="M502.722 355.175L503.796 355.183L504.826 355.211L505.326 355.233L506.294 355.29L507.219 355.367C515.057 356.128 518.34 359.267 519.203 366.916L519.253 367.401L519.33 368.326L519.399 369.542L519.409 369.793L519.437 370.825L519.445 371.899L519.437 372.975L519.409 374.005L519.387 374.505L519.33 375.473L519.253 376.398C518.492 384.236 515.353 387.519 507.704 388.382L507.219 388.432L506.294 388.509L505.078 388.578L504.827 388.588L503.795 388.616L502.721 388.624L501.647 388.616L500.617 388.588L500.117 388.566L499.149 388.509L498.224 388.432C490.387 387.669 487.099 384.528 486.241 376.88L486.191 376.395L486.114 375.475L486.045 374.255L486.035 374.004L486.007 372.975L485.999 372.44V371.357L486.006 370.825L486.034 369.795L486.056 369.295L486.113 368.327L486.19 367.402C486.951 359.564 490.09 356.281 497.739 355.418L498.224 355.368L499.149 355.291L500.365 355.222L500.616 355.212L501.648 355.184C501.999 355.178 502.357 355.175 502.722 355.175ZM502.739 376.916L502.527 376.928C502.12 376.976 501.745 377.171 501.473 377.478C501.201 377.784 501.051 378.179 501.051 378.588C501.051 378.998 501.201 379.393 501.473 379.699C501.745 380.005 502.12 380.201 502.527 380.249L502.727 380.261L502.939 380.249C503.346 380.201 503.721 380.005 503.993 379.699C504.265 379.393 504.415 378.998 504.415 378.588C504.415 378.179 504.265 377.784 503.993 377.478C503.721 377.171 503.346 376.976 502.939 376.928L502.739 376.916ZM502.722 361.864C502.312 361.864 501.917 362.014 501.611 362.286C501.305 362.558 501.109 362.933 501.061 363.34L501.049 363.54V373.575L501.061 373.775C501.109 374.182 501.305 374.557 501.611 374.829C501.917 375.101 502.312 375.251 502.722 375.251C503.131 375.251 503.526 375.101 503.832 374.829C504.139 374.557 504.334 374.182 504.382 373.775L504.394 373.575V363.537L504.382 363.337C504.334 362.93 504.139 362.555 503.832 362.283C503.526 362.01 503.131 361.86 502.721 361.86L502.722 361.864Z" fill="#59467B"/>
<path d="M707.987 378.74H554.487C551.748 378.74 549.527 375.8 549.527 372.174C549.527 368.548 551.748 365.608 554.487 365.608H707.987C710.726 365.608 712.947 368.548 712.947 372.174C712.947 375.8 710.727 378.74 707.987 378.74Z" fill="#59467B"/>
<path d="M712.5 57.003H88.5V56.003H712.5V57.003Z" fill="#CCCCCC"/>
<path d="M534.648 130.656C534.484 130.925 534.268 131.16 534.014 131.346C533.759 131.532 533.47 131.666 533.164 131.74C532.857 131.814 532.539 131.827 532.228 131.779C531.916 131.73 531.617 131.62 531.348 131.456L503.321 114.364C502.777 114.032 502.388 113.499 502.238 112.88C502.087 112.261 502.189 111.608 502.521 111.064C502.852 110.52 503.386 110.131 504.005 109.981C504.624 109.831 505.277 109.932 505.821 110.264L533.846 127.358C534.115 127.522 534.349 127.737 534.535 127.992C534.721 128.246 534.856 128.535 534.93 128.841C535.004 129.147 535.018 129.465 534.97 129.777C534.921 130.088 534.812 130.387 534.648 130.656Z" fill="#3F3D56"/>
<path d="M506.623 113.562C504.644 116.807 501.747 119.392 498.299 120.99C494.851 122.589 491.007 123.129 487.252 122.542C483.497 121.956 480 120.269 477.203 117.695C474.407 115.121 472.437 111.776 471.542 108.082C470.647 104.388 470.867 100.512 472.175 96.9438C473.483 93.3753 475.82 90.2748 478.89 88.0344C481.96 85.794 485.625 84.5142 489.422 84.357C493.22 84.1997 496.978 85.1721 500.223 87.151C504.574 89.8046 507.693 94.078 508.893 99.031C510.093 103.984 509.277 109.211 506.623 113.562ZM477.914 96.051C476.43 98.4846 475.7 101.304 475.818 104.152C475.936 107 476.896 109.749 478.576 112.051C480.257 114.354 482.582 116.106 485.259 117.087C487.935 118.068 490.842 118.233 493.612 117.562C496.382 116.891 498.892 115.413 500.822 113.316C502.752 111.218 504.018 108.596 504.457 105.78C504.897 102.963 504.492 100.08 503.293 97.4937C502.094 94.9076 500.156 92.7351 497.722 91.251C494.459 89.2612 490.539 88.6491 486.824 89.5492C483.11 90.4494 479.905 92.7881 477.915 96.051H477.914Z" fill="#3F3D56"/>
<g opacity="0.7">
<path d="M588.502 132.343H554.366C553.208 132.342 552.099 131.881 551.28 131.063C550.462 130.244 550.001 129.135 550 127.977V87.887C550.001 86.7294 550.462 85.6197 551.28 84.8012C552.099 83.9827 553.208 83.5223 554.366 83.521H586.125L592.869 88.897V127.978C592.867 129.136 592.407 130.245 591.588 131.063C590.769 131.882 589.66 132.342 588.502 132.343Z" fill="#090814"/>
<path d="M554.366 84.778C553.542 84.7791 552.752 85.107 552.169 85.6898C551.586 86.2726 551.258 87.0628 551.257 87.887V127.977C551.258 128.801 551.586 129.591 552.169 130.174C552.752 130.757 553.542 131.085 554.366 131.086H588.502C589.326 131.085 590.116 130.757 590.699 130.174C591.282 129.591 591.61 128.801 591.611 127.977V89.502L585.684 84.778H554.366Z" fill="white"/>
<path d="M581.859 96.434H566.321C566.128 96.434 565.943 96.3574 565.807 96.2211C565.671 96.0847 565.594 95.8998 565.594 95.707C565.594 95.5142 565.671 95.3293 565.807 95.1929C565.943 95.0566 566.128 94.98 566.321 94.98H581.859C582.052 94.98 582.237 95.0566 582.373 95.1929C582.509 95.3293 582.586 95.5142 582.586 95.707C582.586 95.8998 582.509 96.0847 582.373 96.2211C582.237 96.3574 582.052 96.434 581.859 96.434Z" fill="#59467B"/>
<path d="M584.859 98.889H566.321C566.128 98.889 565.943 98.8124 565.807 98.676C565.671 98.5397 565.594 98.3548 565.594 98.162C565.594 97.9692 565.671 97.7842 565.807 97.6479C565.943 97.5116 566.128 97.435 566.321 97.435H584.859C585.052 97.435 585.237 97.5116 585.373 97.6479C585.509 97.7842 585.586 97.9692 585.586 98.162C585.586 98.3548 585.509 98.5397 585.373 98.676C585.237 98.8124 585.052 98.889 584.859 98.889Z" fill="#59467B"/>
<path d="M581.862 105.979H566.321C566.128 105.979 565.943 106.056 565.807 106.192C565.671 106.328 565.594 106.513 565.594 106.706C565.594 106.899 565.671 107.084 565.807 107.22C565.943 107.356 566.128 107.433 566.321 107.433H581.862C582.055 107.433 582.24 107.356 582.376 107.22C582.512 107.084 582.589 106.899 582.589 106.706C582.589 106.513 582.512 106.328 582.376 106.192C582.24 106.056 582.055 105.979 581.862 105.979Z" fill="#CCCCCC"/>
<path d="M584.862 108.433H566.322C566.129 108.433 565.944 108.51 565.808 108.646C565.672 108.782 565.595 108.967 565.595 109.16C565.595 109.353 565.672 109.538 565.808 109.674C565.944 109.81 566.129 109.887 566.322 109.887H584.862C585.055 109.887 585.24 109.81 585.376 109.674C585.512 109.538 585.589 109.353 585.589 109.16C585.589 108.967 585.512 108.782 585.376 108.646C585.24 108.51 585.055 108.433 584.862 108.433Z" fill="#CCCCCC"/>
<path d="M581.859 118.428H566.321C566.128 118.428 565.943 118.351 565.807 118.215C565.671 118.079 565.594 117.894 565.594 117.701C565.594 117.508 565.671 117.323 565.807 117.187C565.943 117.051 566.128 116.974 566.321 116.974H581.859C582.052 116.974 582.237 117.051 582.373 117.187C582.509 117.323 582.586 117.508 582.586 117.701C582.586 117.894 582.509 118.079 582.373 118.215C582.237 118.351 582.052 118.428 581.859 118.428Z" fill="#CCCCCC"/>
<path d="M584.859 120.884H566.321C566.128 120.884 565.943 120.807 565.807 120.671C565.671 120.535 565.594 120.35 565.594 120.157C565.594 119.964 565.671 119.779 565.807 119.643C565.943 119.507 566.128 119.43 566.321 119.43H584.859C585.052 119.43 585.237 119.507 585.373 119.643C585.509 119.779 585.586 119.964 585.586 120.157C585.586 120.35 585.509 120.535 585.373 120.671C585.237 120.807 585.052 120.884 584.859 120.884Z" fill="#CCCCCC"/>
<path d="M559.849 99.504C561.268 99.504 562.419 98.3534 562.419 96.934C562.419 95.5146 561.268 94.364 559.849 94.364C558.43 94.364 557.279 95.5146 557.279 96.934C557.279 98.3534 558.43 99.504 559.849 99.504Z" fill="#59467B"/>
<path d="M562.683 107.932C562.683 108.269 562.617 108.604 562.488 108.916C562.359 109.227 562.17 109.511 561.931 109.75C561.692 109.988 561.409 110.178 561.097 110.307C560.786 110.436 560.451 110.503 560.114 110.503C560.092 110.504 560.07 110.504 560.048 110.503C559.543 110.49 559.052 110.328 558.638 110.038C558.224 109.748 557.905 109.342 557.721 108.871C557.537 108.4 557.495 107.886 557.602 107.392C557.708 106.897 557.958 106.446 558.321 106.093C558.683 105.74 559.141 105.502 559.638 105.408C560.134 105.315 560.648 105.37 561.114 105.566C561.579 105.763 561.977 106.092 562.256 106.514C562.535 106.935 562.684 107.429 562.684 107.935L562.683 107.932Z" fill="#CCCCCC"/>
<path d="M559.849 121.5C561.268 121.5 562.419 120.349 562.419 118.93C562.419 117.511 561.268 116.36 559.849 116.36C558.43 116.36 557.279 117.511 557.279 118.93C557.279 120.349 558.43 121.5 559.849 121.5Z" fill="#CCCCCC"/>
<path d="M592.737 89.07H587.454C587.068 89.07 586.699 88.9168 586.426 88.6441C586.153 88.3715 586 88.0016 586 87.616V83.716C586 83.699 586.005 83.6824 586.014 83.668C586.023 83.6537 586.036 83.6422 586.051 83.6348C586.067 83.6274 586.084 83.6244 586.101 83.6262C586.118 83.628 586.134 83.6345 586.147 83.645L592.793 88.91C592.808 88.9217 592.818 88.9377 592.824 88.9557C592.829 88.9738 592.828 88.993 592.822 89.0107C592.816 89.0285 592.804 89.0439 592.789 89.0549C592.774 89.0658 592.756 89.0718 592.737 89.072V89.07Z" fill="#090814"/>
</g>
<g opacity="0.7">
<path d="M648.502 132.343H614.366C613.208 132.342 612.099 131.881 611.28 131.063C610.462 130.244 610.001 129.135 610 127.977V87.887C610.001 86.7294 610.462 85.6197 611.28 84.8012C612.099 83.9827 613.208 83.5223 614.366 83.521H646.125L652.869 88.897V127.978C652.867 129.136 652.407 130.245 651.588 131.063C650.769 131.882 649.659 132.342 648.502 132.343Z" fill="#090814"/>
<path d="M614.366 84.778C613.542 84.7791 612.752 85.107 612.169 85.6898C611.586 86.2726 611.258 87.0628 611.257 87.887V127.977C611.258 128.801 611.586 129.591 612.169 130.174C612.752 130.757 613.542 131.085 614.366 131.086H648.502C649.326 131.085 650.116 130.757 650.699 130.174C651.282 129.591 651.61 128.801 651.611 127.977V89.502L645.684 84.778H614.366Z" fill="white"/>
<path d="M641.859 96.434H626.321C626.128 96.434 625.943 96.3574 625.807 96.2211C625.671 96.0847 625.594 95.8998 625.594 95.707C625.594 95.5142 625.671 95.3293 625.807 95.1929C625.943 95.0566 626.128 94.98 626.321 94.98H641.859C642.052 94.98 642.237 95.0566 642.373 95.1929C642.509 95.3293 642.586 95.5142 642.586 95.707C642.586 95.8998 642.509 96.0847 642.373 96.2211C642.237 96.3574 642.052 96.434 641.859 96.434Z" fill="#59467B"/>
<path d="M644.859 98.889H626.321C626.128 98.889 625.943 98.8124 625.807 98.676C625.671 98.5397 625.594 98.3548 625.594 98.162C625.594 97.9692 625.671 97.7842 625.807 97.6479C625.943 97.5116 626.128 97.435 626.321 97.435H644.859C645.052 97.435 645.237 97.5116 645.373 97.6479C645.509 97.7842 645.586 97.9692 645.586 98.162C645.586 98.3548 645.509 98.5397 645.373 98.676C645.237 98.8124 645.052 98.889 644.859 98.889Z" fill="#59467B"/>
<path d="M641.862 105.979H626.321C626.128 105.979 625.943 106.056 625.807 106.192C625.671 106.328 625.594 106.513 625.594 106.706C625.594 106.899 625.671 107.084 625.807 107.22C625.943 107.356 626.128 107.433 626.321 107.433H641.862C642.055 107.433 642.24 107.356 642.376 107.22C642.512 107.084 642.589 106.899 642.589 106.706C642.589 106.513 642.512 106.328 642.376 106.192C642.24 106.056 642.055 105.979 641.862 105.979Z" fill="#CCCCCC"/>
<path d="M644.862 108.433H626.322C626.129 108.433 625.944 108.51 625.808 108.646C625.672 108.782 625.595 108.967 625.595 109.16C625.595 109.353 625.672 109.538 625.808 109.674C625.944 109.81 626.129 109.887 626.322 109.887H644.862C645.055 109.887 645.24 109.81 645.376 109.674C645.512 109.538 645.589 109.353 645.589 109.16C645.589 108.967 645.512 108.782 645.376 108.646C645.24 108.51 645.055 108.433 644.862 108.433Z" fill="#CCCCCC"/>
<path d="M641.859 118.428H626.321C626.128 118.428 625.943 118.351 625.807 118.215C625.671 118.079 625.594 117.894 625.594 117.701C625.594 117.508 625.671 117.323 625.807 117.187C625.943 117.051 626.128 116.974 626.321 116.974H641.859C642.052 116.974 642.237 117.051 642.373 117.187C642.509 117.323 642.586 117.508 642.586 117.701C642.586 117.894 642.509 118.079 642.373 118.215C642.237 118.351 642.052 118.428 641.859 118.428Z" fill="#CCCCCC"/>
<path d="M644.859 120.884H626.321C626.128 120.884 625.943 120.807 625.807 120.671C625.671 120.535 625.594 120.35 625.594 120.157C625.594 119.964 625.671 119.779 625.807 119.643C625.943 119.507 626.128 119.43 626.321 119.43H644.859C645.052 119.43 645.237 119.507 645.373 119.643C645.509 119.779 645.586 119.964 645.586 120.157C645.586 120.35 645.509 120.535 645.373 120.671C645.237 120.807 645.052 120.884 644.859 120.884Z" fill="#CCCCCC"/>
<path d="M619.849 99.504C621.268 99.504 622.419 98.3534 622.419 96.934C622.419 95.5146 621.268 94.364 619.849 94.364C618.43 94.364 617.279 95.5146 617.279 96.934C617.279 98.3534 618.43 99.504 619.849 99.504Z" fill="#59467B"/>
<path d="M622.683 107.932C622.683 108.269 622.617 108.604 622.488 108.916C622.359 109.227 622.169 109.511 621.931 109.75C621.692 109.988 621.409 110.178 621.097 110.307C620.786 110.436 620.451 110.503 620.114 110.503C620.092 110.504 620.07 110.504 620.048 110.503C619.543 110.49 619.052 110.328 618.638 110.038C618.224 109.748 617.905 109.342 617.721 108.871C617.537 108.4 617.495 107.886 617.602 107.392C617.708 106.897 617.958 106.446 618.321 106.093C618.683 105.74 619.141 105.502 619.638 105.408C620.134 105.315 620.648 105.37 621.113 105.566C621.579 105.763 621.977 106.092 622.256 106.514C622.535 106.935 622.684 107.429 622.684 107.935L622.683 107.932Z" fill="#CCCCCC"/>
<path d="M619.849 121.5C621.268 121.5 622.419 120.349 622.419 118.93C622.419 117.511 621.268 116.36 619.849 116.36C618.43 116.36 617.279 117.511 617.279 118.93C617.279 120.349 618.43 121.5 619.849 121.5Z" fill="#CCCCCC"/>
<path d="M652.737 89.07H647.454C647.068 89.07 646.699 88.9168 646.426 88.6441C646.153 88.3715 646 88.0016 646 87.616V83.716C646 83.699 646.005 83.6824 646.014 83.668C646.023 83.6537 646.036 83.6422 646.051 83.6348C646.067 83.6274 646.084 83.6244 646.101 83.6262C646.118 83.628 646.134 83.6345 646.147 83.645L652.793 88.91C652.808 88.9217 652.818 88.9377 652.824 88.9557C652.829 88.9738 652.828 88.993 652.822 89.0107C652.816 89.0285 652.804 89.0439 652.789 89.0549C652.774 89.0658 652.756 89.0718 652.737 89.072V89.07Z" fill="#090814"/>
</g>
<g opacity="0.7">
<path d="M708.502 132.343H674.366C673.208 132.342 672.099 131.881 671.28 131.063C670.462 130.244 670.001 129.135 670 127.977V87.887C670.001 86.7294 670.462 85.6197 671.28 84.8012C672.099 83.9827 673.208 83.5223 674.366 83.521H706.125L712.869 88.897V127.978C712.867 129.136 712.407 130.245 711.588 131.063C710.769 131.882 709.659 132.342 708.502 132.343Z" fill="#090814"/>
<path d="M674.366 84.778C673.542 84.7791 672.752 85.107 672.169 85.6898C671.586 86.2726 671.258 87.0628 671.257 87.887V127.977C671.258 128.801 671.586 129.591 672.169 130.174C672.752 130.757 673.542 131.085 674.366 131.086H708.502C709.326 131.085 710.116 130.757 710.699 130.174C711.282 129.591 711.61 128.801 711.611 127.977V89.502L705.684 84.778H674.366Z" fill="white"/>
<path d="M701.859 96.434H686.321C686.128 96.434 685.943 96.3574 685.807 96.2211C685.671 96.0847 685.594 95.8998 685.594 95.707C685.594 95.5142 685.671 95.3293 685.807 95.1929C685.943 95.0566 686.128 94.98 686.321 94.98H701.859C702.052 94.98 702.237 95.0566 702.373 95.1929C702.509 95.3293 702.586 95.5142 702.586 95.707C702.586 95.8998 702.509 96.0847 702.373 96.2211C702.237 96.3574 702.052 96.434 701.859 96.434Z" fill="#59467B"/>
<path d="M704.859 98.889H686.321C686.128 98.889 685.943 98.8124 685.807 98.676C685.671 98.5397 685.594 98.3548 685.594 98.162C685.594 97.9692 685.671 97.7842 685.807 97.6479C685.943 97.5116 686.128 97.435 686.321 97.435H704.859C705.052 97.435 705.237 97.5116 705.373 97.6479C705.509 97.7842 705.586 97.9692 705.586 98.162C705.586 98.3548 705.509 98.5397 705.373 98.676C705.237 98.8124 705.052 98.889 704.859 98.889Z" fill="#59467B"/>
<path d="M701.862 105.979H686.321C686.128 105.979 685.943 106.056 685.807 106.192C685.671 106.328 685.594 106.513 685.594 106.706C685.594 106.899 685.671 107.084 685.807 107.22C685.943 107.356 686.128 107.433 686.321 107.433H701.862C702.055 107.433 702.24 107.356 702.376 107.22C702.512 107.084 702.589 106.899 702.589 106.706C702.589 106.513 702.512 106.328 702.376 106.192C702.24 106.056 702.055 105.979 701.862 105.979Z" fill="#CCCCCC"/>
<path d="M704.862 108.433H686.322C686.129 108.433 685.944 108.51 685.808 108.646C685.672 108.782 685.595 108.967 685.595 109.16C685.595 109.353 685.672 109.538 685.808 109.674C685.944 109.81 686.129 109.887 686.322 109.887H704.862C705.055 109.887 705.24 109.81 705.376 109.674C705.512 109.538 705.589 109.353 705.589 109.16C705.589 108.967 705.512 108.782 705.376 108.646C705.24 108.51 705.055 108.433 704.862 108.433Z" fill="#CCCCCC"/>
<path d="M701.859 118.428H686.321C686.128 118.428 685.943 118.351 685.807 118.215C685.671 118.079 685.594 117.894 685.594 117.701C685.594 117.508 685.671 117.323 685.807 117.187C685.943 117.051 686.128 116.974 686.321 116.974H701.859C702.052 116.974 702.237 117.051 702.373 117.187C702.509 117.323 702.586 117.508 702.586 117.701C702.586 117.894 702.509 118.079 702.373 118.215C702.237 118.351 702.052 118.428 701.859 118.428Z" fill="#CCCCCC"/>
<path d="M704.859 120.884H686.321C686.128 120.884 685.943 120.807 685.807 120.671C685.671 120.535 685.594 120.35 685.594 120.157C685.594 119.964 685.671 119.779 685.807 119.643C685.943 119.507 686.128 119.43 686.321 119.43H704.859C705.052 119.43 705.237 119.507 705.373 119.643C705.509 119.779 705.586 119.964 705.586 120.157C705.586 120.35 705.509 120.535 705.373 120.671C705.237 120.807 705.052 120.884 704.859 120.884Z" fill="#CCCCCC"/>
<path d="M679.849 99.504C681.268 99.504 682.419 98.3534 682.419 96.934C682.419 95.5146 681.268 94.364 679.849 94.364C678.43 94.364 677.279 95.5146 677.279 96.934C677.279 98.3534 678.43 99.504 679.849 99.504Z" fill="#59467B"/>
<path d="M682.683 107.932C682.683 108.269 682.617 108.604 682.488 108.916C682.359 109.227 682.169 109.511 681.931 109.75C681.692 109.988 681.409 110.178 681.097 110.307C680.786 110.436 680.451 110.503 680.114 110.503C680.092 110.504 680.07 110.504 680.048 110.503C679.543 110.49 679.052 110.328 678.638 110.038C678.224 109.748 677.905 109.342 677.721 108.871C677.537 108.4 677.495 107.886 677.602 107.392C677.708 106.897 677.958 106.446 678.321 106.093C678.683 105.74 679.141 105.502 679.638 105.408C680.134 105.315 680.648 105.37 681.113 105.566C681.579 105.763 681.977 106.092 682.256 106.514C682.535 106.935 682.684 107.429 682.684 107.935L682.683 107.932Z" fill="#CCCCCC"/>
<path d="M679.849 121.5C681.268 121.5 682.419 120.349 682.419 118.93C682.419 117.511 681.268 116.36 679.849 116.36C678.43 116.36 677.279 117.511 677.279 118.93C677.279 120.349 678.43 121.5 679.849 121.5Z" fill="#CCCCCC"/>
<path d="M712.737 89.07H707.454C707.068 89.07 706.699 88.9168 706.426 88.6441C706.153 88.3715 706 88.0016 706 87.616V83.716C706 83.699 706.005 83.6824 706.014 83.668C706.023 83.6537 706.036 83.6422 706.051 83.6348C706.067 83.6274 706.084 83.6244 706.101 83.6262C706.118 83.628 706.134 83.6345 706.147 83.645L712.793 88.91C712.808 88.9217 712.818 88.9377 712.824 88.9557C712.829 88.9738 712.828 88.993 712.822 89.0107C712.816 89.0285 712.804 89.0439 712.789 89.0549C712.774 89.0658 712.756 89.0718 712.737 89.072V89.07Z" fill="#090814"/>
</g>
</svg>
